# xmcd
#
# Track frame offsets:
# 150
# 23310
# 47352
# 69975
# 95090
# 119785
# 138785
# 159570
# 175372
# 197352
# 216455
# 242100
# 264220
# 281402
# 309425
#
# Disc length: 4467 seconds
#
#
# Revision: 2
# Processed by: cddbd v1.5.1PL0 Copyright (c) Steve Scherf et al.
# Submitted via: FreeRIP 2.942 
#
DISCID=cb11710f
DTITLE=Various Artist - Soul Dinner CD2 - Smooth Jazz
DYEAR=1900
DGENRE=Jazz
TTITLE0=K02 Jeff Kashiwa - Mediterranian Nights
TTITLE1=98 Lee Ritenour - And You Know What... I Love You
TTITLE2=K01 Silje Nergaard - Be Still My Heart
TTITLE3=K02 Tony Guerrero - If I Could Have It All
TTITLE4=99 Steve Oliver - West End
TTITLE5=99 Maysa - Got To Be Strong
TTITLE6=98 Marc Antoine - Sunland
TTITLE7=82 Gerorge Duke - I Will Always Be Your Friend
TTITLE8=96 Grover Washington Jr. - Can You Stop The Rain
TTITLE9=K02 Marion Meadows feat. Will Downing - Don't Wanna Know
TTITLE10=K01 Martin Taylor - That's The Way Of The World
TTITLE11=K02 Steve Oliver - Ocean Blue
TTITLE12=95 Greg Adams - Smooth Operator
TTITLE13=88 Kirk Whalum - Glow
TTITLE14=74 Tom Scott - Spindrift
EXTD=
EXTT0=
EXTT1=
EXTT2=
EXTT3=
EXTT4=
EXTT5=
EXTT6=
EXTT7=
EXTT8=
EXTT9=
EXTT10=
EXTT11=
EXTT12=
EXTT13=
EXTT14=
PLAYORDER=
